<?xml version="1.0" encoding="UTF-8"?>
<svg version="1.1" xmlns="http://www.w3.org/2000/svg" width="70" height="70">
<path d="M0 0 C0.84127441 0.02465332 1.68254883 0.04930664 2.54931641 0.07470703 C5.17949669 0.16027713 7.80829086 0.26366781 10.4375 0.375 C11.25299316 0.4056958 12.06848633 0.4363916 12.90869141 0.46801758 C28.55707764 1.23690573 28.55707764 1.23690573 34 7 C37.6505021 12.54663669 37.46249278 17.71259287 37.375 24.125 C37.36194824 25.70450439 37.36194824 25.70450439 37.34863281 27.31591797 C37.22025663 34.31241995 36.72827763 41.19607767 35.75 48.125 C35.58636963 49.33953857 35.58636963 49.33953857 35.41943359 50.57861328 C34.51608445 56.16564425 33.1018363 60.75775121 28.28295898 64.24121094 C23.15838186 67.14618124 18.61166093 67.56369917 12.8125 67.375 C11.9575293 67.35848389 11.10255859 67.34196777 10.22167969 67.32495117 C7.47841682 67.25240578 4.74089021 67.13462509 2 67 C1.06140137 66.95601074 0.12280273 66.91202148 -0.84423828 66.86669922 C-3.64979673 66.71706302 -6.44851919 66.52460107 -9.25 66.3125 C-10.5342688 66.23298096 -10.5342688 66.23298096 -11.84448242 66.15185547 C-17.8920551 65.60137358 -22.2512579 63.82426608 -27 60 C-31.52228906 54.31066861 -31.13958168 47.73953962 -30.765625 40.78515625 C-30.72693298 40.01119003 -30.68824097 39.23722382 -30.64837646 38.43980408 C-30.56431224 36.81002793 -30.47670377 35.18043114 -30.38574219 33.55102539 C-30.25063969 31.07422724 -30.13654936 28.59702805 -30.0234375 26.11914062 C-29.93878584 24.52857688 -29.85288923 22.9380788 -29.765625 21.34765625 C-29.71852386 20.24889915 -29.71852386 20.24889915 -29.67047119 19.12794495 C-29.30705148 13.21047031 -27.91626418 8.44488878 -24.1875 3.6875 C-17.28296982 -1.63885185 -8.22244262 -0.24446467 0 0 Z M-4 19 C-4.82038591 25.401594 -5.12754513 31.61302501 -5.0625 38.0625 C-5.05798828 38.92810547 -5.05347656 39.79371094 -5.04882812 40.68554688 C-5.03719913 42.79039539 -5.01927073 44.89520758 -5 47 C-3.68 47 -2.36 47 -1 47 C-0.01751476 42.9472484 0.08159574 39.16138263 0 35 C3.63 35 7.26 35 11 35 C10.67 33.68 10.34 32.36 10 31 C7.03 30.67 4.06 30.34 1 30 C1 28.02 1 26.04 1 24 C7.435 23.505 7.435 23.505 14 23 C14 22.01 14 21.02 14 20 C8.06 19.67 2.12 19.34 -4 19 Z " fill="#04BA7D" transform="translate(32,2)"/>
<path d="M0 0 C8.82422052 -0.11091897 17.62094461 -0.01513506 26.4375 0.375 C27.66001465 0.4212854 27.66001465 0.4212854 28.90722656 0.46850586 C36.74765805 0.85191858 44.13199049 1.32128112 50 7 C49.67 7.66 49.34 8.32 49 9 C46.5 7.625 46.5 7.625 44 6 C44 5.34 44 4.68 44 4 C34.99918661 2.67543071 26.01139818 2.88918124 16.9375 2.9375 C15.29231907 2.9425242 13.64713665 2.94708548 12.00195312 2.95117188 C8.00126502 2.96210658 4.00064912 2.9793207 0 3 C0 2.01 0 1.02 0 0 Z " fill="#21A37C" transform="translate(16,2)"/>
<path d="M0 0 C0.66 0.33 1.32 0.66 2 1 C3.02002763 4.06008289 3.12904068 6.16383615 3.1328125 9.3671875 C3.13474609 10.94306641 3.13474609 10.94306641 3.13671875 12.55078125 C3.13285156 13.64777344 3.12898438 14.74476562 3.125 15.875 C3.12886719 16.96425781 3.13273437 18.05351562 3.13671875 19.17578125 C3.13542969 20.22894531 3.13414063 21.28210938 3.1328125 22.3671875 C3.13168457 23.32737793 3.13055664 24.28756836 3.12939453 25.27685547 C3.00245897 27.94825028 2.59594101 30.39667875 2 33 C1.01 32.01 0.02 31.02 -1 30 C-0.505 28.515 -0.505 28.515 0 27 C0.08315752 24.93501108 0.10735878 22.8674211 0.09765625 20.80078125 C0.09443359 19.59228516 0.09121094 18.38378906 0.08789062 17.13867188 C0.07951172 15.87603516 0.07113281 14.61339844 0.0625 13.3125 C0.05798828 12.03826172 0.05347656 10.76402344 0.04882812 9.45117188 C0.03702873 6.30073436 0.02056597 3.15039051 0 0 Z " fill="#179475" transform="translate(66,11)"/>
<path d="M0 0 C1.98 0 3.96 0 6 0 C5.67 1.32 5.34 2.64 5 4 C2.23735711 4.59732819 -0.16032769 5 -3 5 C-3 4.34 -3 3.68 -3 3 C-3.66 3 -4.32 3 -5 3 C-5.33 3.99 -5.66 4.98 -6 6 C-6 4.68 -6 3.36 -6 2 C-4.02 2 -2.04 2 0 2 C0 1.34 0 0.68 0 0 Z " fill="#04BB79" transform="translate(40,25)"/>
<path d="M0 0 C5.28 0 10.56 0 16 0 C15.67 0.99 15.34 1.98 15 3 C10.05 3 5.1 3 0 3 C0 2.01 0 1.02 0 0 Z " fill="#21C683" transform="translate(16,2)"/>
<path d="M0 0 C1.56041016 -0.00773437 1.56041016 -0.00773437 3.15234375 -0.015625 C5.99348495 0.24370064 7.64957634 0.78480298 10.0625 2.25 C10.0625 2.58 10.0625 2.91 10.0625 3.25 C3.62179529 3.35655578 -2.56391289 3.21205088 -8.9375 2.25 C-5.48666005 -0.05055997 -4.06574272 -0.02010256 0 0 Z " fill="#17C094" transform="translate(21.9375,64.75)"/>
<path d="M0 0 C1.76462683 3.08809695 2 4.23312136 2 8 C2.99 8 3.98 8 5 8 C5 9.32 5 10.64 5 12 C2 11 2 11 0 8 C-0.25760279 5.30547479 -0.08900053 2.71451625 0 0 Z " fill="#10B986" transform="translate(3,51)"/>
<path d="M0 0 C1.98 0 3.96 0 6 0 C5.67 1.32 5.34 2.64 5 4 C3.68 4.33 2.36 4.66 1 5 C1.33 3.68 1.66 2.36 2 1 C1.34 0.67 0.68 0.34 0 0 Z " fill="#1DA579" transform="translate(40,25)"/>
<path d="M0 0 C-0.33 1.65 -0.66 3.3 -1 5 C-1.33 4.01 -1.66 3.02 -2 2 C-4.64 2 -7.28 2 -10 2 C-10 1.67 -10 1.34 -10 1 C-2.25 0 -2.25 0 0 0 Z " fill="#088C67" transform="translate(48,20)"/>
</svg>
